# xmcd CD database file
#
# Track frame offsets:
#	150
#	18055
#	38195
#	61210
#	80407
#	102912
#	124420
#	146617
#	168462
#	188350
#
# Disc length: 2770 seconds
#
# Revision: 0
# Processed by: cddbd v1.5.1PL0 Copyright (c) Steve Scherf et al.
# Submitted via: CDex 1.51
#
DISCID=7a0ad00a
DTITLE=長澤義塾 - グラッチェ！
DYEAR=1992
DGENRE=JPop
TTITLE0=さるのしっぽ
TTITLE1=泣いたカラス
TTITLE2=太陽にホエールズ
TTITLE3=BLACK JACK21
TTITLE4=リーチ
TTITLE5=ZABAZABA
TTITLE6=Garden of Flower Child
TTITLE7=ライバル
TTITLE8=消えた参謀
TTITLE9=2OUT満塁
EXTD=YEAR: 1992
EXTT0=
EXTT1=
EXTT2=
EXTT3=
EXTT4=
EXTT5=
EXTT6=
EXTT7=
EXTT8=
EXTT9=
PLAYORDER=
